<svg xmlns="http://www.w3.org/2000/svg" viewBox="0 0 900 482" role="img" aria-labelledby="title desc"><title id="title">MIDI settings and MIDI effect roles</title><desc id="desc">MIDI &amp; Sync selects clock and connected devices. Outgoing CC and note lanes belong to the MIDI effect editor.</desc><rect width="900" height="482" rx="8" fill="#090c0f"/><g font-family="-apple-system,BlinkMacSystemFont,Helvetica,Arial,sans-serif"><g transform="translate(28 23) scale(0.453125)" fill="none" stroke="#eff2f6" stroke-width="4" stroke-linecap="round" stroke-linejoin="round"><g  transform="translate(5 21.9185) scale(0.0758427) translate(-137 -96)">
    <path d="M137,96h233c19.6,0,31,16.9,31,37v229h-65V163h-38v199h-59V163h-37v199h-65V96z" />
    <rect x="433" y="96" width="65" height="266" />
    <path d="M529,96h193c19.6,0,31,16.9,31,37v196c0,24.9-10.4,33-33,33H529V193h66v104h93V156H529V96z" />
    <rect x="783" y="96" width="66" height="266" />
  </g>
</g><text x="70" y="44" font-size="20" fill="#eff2f6" text-anchor="start" font-weight="600">MIDI &amp; SYNC</text><g transform="translate(801 25) scale(0.375)" fill="none" stroke="#9fa6ae" stroke-width="2.72596" stroke-linecap="round" stroke-linejoin="round"><g  transform="translate(-9.0864 -9.0864) scale(1.2840)">
<path d="M18 13.5H46L50.5 18V46L46 50.5H18L13.5 46V18L18 13.5Z" />
  <circle cx="24.5" cy="24.5" r="3.6" fill="#9fa6ae" stroke="none" />
  <circle cx="39.5" cy="24.5" r="3.6" fill="#9fa6ae" stroke="none" />
  <circle cx="32" cy="32" r="3.6" fill="#9fa6ae" stroke="none" />
  <circle cx="24.5" cy="39.5" r="3.6" fill="#9fa6ae" stroke="none" />
  <circle cx="39.5" cy="39.5" r="3.6" fill="#9fa6ae" stroke="none" />
  </g>
</g><path d="M856,29 l13,13 M869,29 l-13,13" stroke="#9fa6ae" stroke-width="1.5" fill="none" stroke-linecap="round" stroke-linejoin="round"/><line x1="24" y1="66" x2="876" y2="66" stroke="#444f59" stroke-width="1"/><text x="30" y="95" font-size="17" fill="#eff2f6" text-anchor="start" font-weight="500">Clock Sync</text><text x="30" y="124" font-size="13" fill="#9fa6ae" text-anchor="start" font-weight="500">Incoming tempo and transport</text><text x="858" y="95" font-size="13" fill="#c9f427" text-anchor="end" font-weight="500">Auto</text><line x1="30" y1="153" x2="870" y2="153" stroke="#444f59" stroke-width="1"/><text x="30" y="203" font-size="17" fill="#eff2f6" text-anchor="start" font-weight="500">MIDI Input Devices</text><text x="30" y="232" font-size="13" fill="#9fa6ae" text-anchor="start" font-weight="500">Enable the source you want to receive</text><text x="858" y="203" font-size="13" fill="#c9f427" text-anchor="end" font-weight="500">Connected device</text><line x1="30" y1="261" x2="870" y2="261" stroke="#444f59" stroke-width="1"/><text x="30" y="311" font-size="17" fill="#eff2f6" text-anchor="start" font-weight="500">MIDI Output Devices</text><text x="30" y="340" font-size="13" fill="#9fa6ae" text-anchor="start" font-weight="500">Enable the destination for outgoing MIDI</text><text x="858" y="311" font-size="13" fill="#c9f427" text-anchor="end" font-weight="500">Connected device</text><line x1="30" y1="369" x2="870" y2="369" stroke="#444f59" stroke-width="1"/><text x="30" y="449" font-size="14" fill="#9fa6ae" text-anchor="start" font-weight="500">The MIDI effect sends CCs and notes. It is configured separately from incoming clock.</text></g></svg>