<svg xmlns="http://www.w3.org/2000/svg" viewBox="0 0 460 250" fill="none" stroke="#F7F5EF" stroke-opacity="0.78" stroke-width="1.5" stroke-linecap="round" stroke-linejoin="round"><rect x="1" y="1" width="458" height="248" rx="10" /><circle cx="50" cy="44" r="14" /><path d="M52.5 39.8L56.3 33.1"/><circle cx="98" cy="44" r="14" /><path d="M94.2 40.9L88.3 35.9"/><circle cx="146" cy="44" r="14" /><path d="M150.8 43.1L158.4 41.8"/><circle cx="194" cy="44" r="14" /><path d="M192.3 39.4L189.7 32.2"/><circle cx="50" cy="94" r="14" /><path d="M50.9 89.2L52.2 81.6"/><circle cx="98" cy="94" r="14" /><path d="M102.2 91.5L108.9 87.7"/><circle cx="146" cy="94" r="14" /><path d="M141.4 92.3L134.2 89.7"/><circle cx="194" cy="94" r="14" /><path d="M198.8 94.9L206.4 96.2"/><rect x="262" y="26" width="10" height="10" rx="1.5" stroke-opacity="0.6"/><rect x="278" y="26" width="10" height="10" rx="1.5" stroke-opacity="0.6"/><rect x="294" y="26" width="10" height="10" rx="1.5" stroke-opacity="0.6"/><rect x="310" y="26" width="10" height="10" rx="1.5" stroke-opacity="0.6"/><rect x="326" y="26" width="10" height="10" rx="1.5" stroke-opacity="0.6"/><rect x="342" y="26" width="10" height="10" rx="1.5" fill="#FF6A00" stroke="none"/><rect x="262" y="42" width="10" height="10" rx="1.5" stroke-opacity="0.6"/><rect x="278" y="42" width="10" height="10" rx="1.5" stroke-opacity="0.6"/><rect x="294" y="42" width="10" height="10" rx="1.5" fill="#FF6A00" stroke="none"/><rect x="310" y="42" width="10" height="10" rx="1.5" stroke-opacity="0.6"/><rect x="326" y="42" width="10" height="10" rx="1.5" stroke-opacity="0.6"/><rect x="342" y="42" width="10" height="10" rx="1.5" stroke-opacity="0.6"/><rect x="262" y="58" width="10" height="10" rx="1.5" stroke-opacity="0.6"/><rect x="278" y="58" width="10" height="10" rx="1.5" stroke-opacity="0.6"/><rect x="294" y="58" width="10" height="10" rx="1.5" stroke-opacity="0.6"/><rect x="310" y="58" width="10" height="10" rx="1.5" stroke-opacity="0.6"/><rect x="326" y="58" width="10" height="10" rx="1.5" fill="#FF6A00" stroke="none"/><rect x="342" y="58" width="10" height="10" rx="1.5" stroke-opacity="0.6"/><rect x="262" y="74" width="10" height="10" rx="1.5" stroke-opacity="0.6"/><rect x="278" y="74" width="10" height="10" rx="1.5" fill="#FF6A00" stroke="none"/><rect x="294" y="74" width="10" height="10" rx="1.5" stroke-opacity="0.6"/><rect x="310" y="74" width="10" height="10" rx="1.5" stroke-opacity="0.6"/><rect x="326" y="74" width="10" height="10" rx="1.5" stroke-opacity="0.6"/><rect x="342" y="74" width="10" height="10" rx="1.5" stroke-opacity="0.6"/><rect x="262" y="90" width="10" height="10" rx="1.5" stroke-opacity="0.6"/><rect x="278" y="90" width="10" height="10" rx="1.5" stroke-opacity="0.6"/><rect x="294" y="90" width="10" height="10" rx="1.5" stroke-opacity="0.6"/><rect x="310" y="90" width="10" height="10" rx="1.5" stroke-opacity="0.6"/><rect x="326" y="90" width="10" height="10" rx="1.5" stroke-opacity="0.6"/><rect x="342" y="90" width="10" height="10" rx="1.5" stroke-opacity="0.6"/><circle cx="398" cy="42" r="11" /><path d="M400.5 39.1L404.4 34.4"/><circle cx="398" cy="94" r="11" /><path d="M396.1 90.7L393.1 85.4"/><rect x="22" y="132" width="416" height="96" rx="6" /><path d="M49.7 132L49.7 228"/><path d="M77.5 132L77.5 228"/><path d="M105.2 132L105.2 228"/><path d="M132.9 132L132.9 228"/><path d="M160.7 132L160.7 228"/><path d="M188.4 132L188.4 228"/><path d="M216.1 132L216.1 228"/><path d="M243.9 132L243.9 228"/><path d="M271.6 132L271.6 228"/><path d="M299.3 132L299.3 228"/><path d="M327.1 132L327.1 228"/><path d="M354.8 132L354.8 228"/><path d="M382.5 132L382.5 228"/><path d="M410.3 132L410.3 228"/><rect x="41.7" y="132" width="16" height="58" rx="2" fill="#F7F5EF" fill-opacity="0.12"/><rect x="69.5" y="132" width="16" height="58" rx="2" fill="#F7F5EF" fill-opacity="0.12"/><rect x="124.9" y="132" width="16" height="58" rx="2" fill="#F7F5EF" fill-opacity="0.12"/><rect x="152.7" y="132" width="16" height="58" rx="2" fill="#F7F5EF" fill-opacity="0.12"/><rect x="180.4" y="132" width="16" height="58" rx="2" fill="#F7F5EF" fill-opacity="0.12"/><rect x="235.9" y="132" width="16" height="58" rx="2" fill="#F7F5EF" fill-opacity="0.12"/><rect x="263.6" y="132" width="16" height="58" rx="2" fill="#F7F5EF" fill-opacity="0.12"/><rect x="319.1" y="132" width="16" height="58" rx="2" fill="#F7F5EF" fill-opacity="0.12"/><rect x="346.8" y="132" width="16" height="58" rx="2" fill="#F7F5EF" fill-opacity="0.12"/><rect x="374.5" y="132" width="16" height="58" rx="2" fill="#F7F5EF" fill-opacity="0.12"/></svg>
